<svg xmlns="http://www.w3.org/2000/svg" width="384" height="1152" viewBox="0 0 384 1152" shape-rendering="crispEdges"><defs>
<g id="body_south">
 <ellipse cx="32" cy="53" rx="13" ry="3" fill="#000" opacity=".18"/>
 <rect x="23" y="17" width="18" height="14" fill="#252944"/>
 <rect x="26" y="20" width="12" height="8" fill="#30365c"/>
 <rect x="28" y="22" width="3" height="3" fill="#8fd8ff"/><rect x="34" y="22" width="3" height="3" fill="#8fd8ff"/>
 <rect x="21" y="28" width="22" height="19" fill="#5c69a0"/>
 <rect x="18" y="43" width="28" height="5" fill="#252944"/>
 <rect x="19" y="48" width="4" height="5" fill="#5c69a0"/><rect x="26" y="50" width="4" height="5" fill="#5c69a0"/><rect x="33" y="48" width="4" height="5" fill="#5c69a0"/><rect x="40" y="50" width="4" height="5" fill="#5c69a0"/>
 <rect x="16" y="31" width="9" height="4" fill="#5c69a0"/><rect x="39" y="31" width="9" height="4" fill="#5c69a0"/>
</g>
<g id="body_side">
 <ellipse cx="32" cy="53" rx="13" ry="3" fill="#000" opacity=".18"/>
 <rect x="23" y="17" width="18" height="14" fill="#252944"/>
 <rect x="26" y="20" width="12" height="8" fill="#30365c"/>
 <rect x="28" y="22" width="3" height="3" fill="#8fd8ff"/><rect x="34" y="22" width="3" height="3" fill="#8fd8ff"/>
 <rect x="21" y="28" width="22" height="19" fill="#5c69a0"/>
 <rect x="18" y="43" width="28" height="5" fill="#252944"/>
 <rect x="19" y="48" width="4" height="5" fill="#5c69a0"/><rect x="26" y="50" width="4" height="5" fill="#5c69a0"/><rect x="33" y="48" width="4" height="5" fill="#5c69a0"/><rect x="40" y="50" width="4" height="5" fill="#5c69a0"/>
 <rect x="16" y="31" width="9" height="4" fill="#5c69a0"/><rect x="39" y="31" width="9" height="4" fill="#5c69a0"/>
</g>
<g id="body_north">
 <ellipse cx="32" cy="53" rx="13" ry="3" fill="#000" opacity=".18"/>
 <rect x="23" y="17" width="18" height="14" fill="#252944"/>
 <rect x="26" y="20" width="12" height="8" fill="#30365c"/>
 <rect x="28" y="22" width="3" height="3" fill="#8fd8ff"/><rect x="34" y="22" width="3" height="3" fill="#8fd8ff"/>
 <rect x="21" y="28" width="22" height="19" fill="#5c69a0"/>
 <rect x="18" y="43" width="28" height="5" fill="#252944"/>
 <rect x="19" y="48" width="4" height="5" fill="#5c69a0"/><rect x="26" y="50" width="4" height="5" fill="#5c69a0"/><rect x="33" y="48" width="4" height="5" fill="#5c69a0"/><rect x="40" y="50" width="4" height="5" fill="#5c69a0"/>
 <rect x="16" y="31" width="9" height="4" fill="#5c69a0"/><rect x="39" y="31" width="9" height="4" fill="#5c69a0"/>
</g></defs><g transform="translate(0,0)"><g transform="translate(0 0)"><use href="#body_south"/></g></g><g transform="translate(64,0)"><g transform="translate(0 0)"><use href="#body_south"/></g></g><g transform="translate(128,0)"><g transform="translate(0 -1)"><use href="#body_south"/></g></g><g transform="translate(192,0)"><g transform="translate(0 -1)"><use href="#body_south"/></g></g><g transform="translate(256,0)"><g transform="translate(0 0)"><use href="#body_south"/></g></g><g transform="translate(320,0)"><g transform="translate(0 0)"><use href="#body_south"/></g></g><g transform="translate(0,64)"><g transform="translate(0 0)"><use href="#body_side"/></g></g><g transform="translate(64,64)"><g transform="translate(0 0)"><use href="#body_side"/></g></g><g transform="translate(128,64)"><g transform="translate(0 -1)"><use href="#body_side"/></g></g><g transform="translate(192,64)"><g transform="translate(0 -1)"><use href="#body_side"/></g></g><g transform="translate(256,64)"><g transform="translate(0 0)"><use href="#body_side"/></g></g><g transform="translate(320,64)"><g transform="translate(0 0)"><use href="#body_side"/></g></g><g transform="translate(0,128)"><g transform="translate(0 0)"><use href="#body_north"/></g></g><g transform="translate(64,128)"><g transform="translate(0 0)"><use href="#body_north"/></g></g><g transform="translate(128,128)"><g transform="translate(0 -1)"><use href="#body_north"/></g></g><g transform="translate(192,128)"><g transform="translate(0 -1)"><use href="#body_north"/></g></g><g transform="translate(256,128)"><g transform="translate(0 0)"><use href="#body_north"/></g></g><g transform="translate(320,128)"><g transform="translate(0 0)"><use href="#body_north"/></g></g><g transform="translate(0,192)"><g transform="translate(0 0)"><use href="#body_south"/></g></g><g transform="translate(64,192)"><g transform="translate(1 1)"><use href="#body_south"/></g></g><g transform="translate(128,192)"><g transform="translate(2 0)"><use href="#body_south"/></g></g><g transform="translate(192,192)"><g transform="translate(1 -1)"><use href="#body_south"/></g></g><g transform="translate(256,192)"><g transform="translate(0 0)"><use href="#body_south"/></g></g><g transform="translate(320,192)"><g transform="translate(-1 1)"><use href="#body_south"/></g></g><g transform="translate(0,256)"><g transform="translate(0 0)"><use href="#body_side"/></g></g><g transform="translate(64,256)"><g transform="translate(1 1)"><use href="#body_side"/></g></g><g transform="translate(128,256)"><g transform="translate(2 0)"><use href="#body_side"/></g></g><g transform="translate(192,256)"><g transform="translate(1 -1)"><use href="#body_side"/></g></g><g transform="translate(256,256)"><g transform="translate(0 0)"><use href="#body_side"/></g></g><g transform="translate(320,256)"><g transform="translate(-1 1)"><use href="#body_side"/></g></g><g transform="translate(0,320)"><g transform="translate(0 0)"><use href="#body_north"/></g></g><g transform="translate(64,320)"><g transform="translate(1 1)"><use href="#body_north"/></g></g><g transform="translate(128,320)"><g transform="translate(2 0)"><use href="#body_north"/></g></g><g transform="translate(192,320)"><g transform="translate(1 -1)"><use href="#body_north"/></g></g><g transform="translate(256,320)"><g transform="translate(0 0)"><use href="#body_north"/></g></g><g transform="translate(320,320)"><g transform="translate(-1 1)"><use href="#body_north"/></g></g><g transform="translate(0,384)"><g transform="translate(0 0)"><use href="#body_south"/></g></g><g transform="translate(64,384)"><g transform="translate(0 0)"><use href="#body_south"/></g></g><g transform="translate(128,384)"><g transform="translate(0 -1)"><use href="#body_south"/></g></g><g transform="translate(192,384)"><g transform="translate(0 -2)"><use href="#body_south"/></g><circle cx="32" cy="30" r="12" fill="none" stroke="#9c7cff" stroke-width="2"/></g><g transform="translate(256,384)"><g transform="translate(0 -1)"><use href="#body_south"/></g><circle cx="32" cy="30" r="14" fill="none" stroke="#9c7cff" stroke-width="2"/></g><g transform="translate(320,384)"><g transform="translate(0 0)"><use href="#body_south"/></g><circle cx="32" cy="30" r="16" fill="none" stroke="#9c7cff" stroke-width="2"/></g><g transform="translate(0,448)"><g transform="translate(0 0)"><use href="#body_side"/></g></g><g transform="translate(64,448)"><g transform="translate(0 0)"><use href="#body_side"/></g></g><g transform="translate(128,448)"><g transform="translate(2 -1)"><use href="#body_side"/></g></g><g transform="translate(192,448)"><g transform="translate(6 -2)"><use href="#body_side"/></g><circle cx="32" cy="30" r="12" fill="none" stroke="#9c7cff" stroke-width="2"/></g><g transform="translate(256,448)"><g transform="translate(3 -1)"><use href="#body_side"/></g><circle cx="32" cy="30" r="14" fill="none" stroke="#9c7cff" stroke-width="2"/></g><g transform="translate(320,448)"><g transform="translate(0 0)"><use href="#body_side"/></g><circle cx="32" cy="30" r="16" fill="none" stroke="#9c7cff" stroke-width="2"/></g><g transform="translate(0,512)"><g transform="translate(0 0)"><use href="#body_north"/></g></g><g transform="translate(64,512)"><g transform="translate(0 0)"><use href="#body_north"/></g></g><g transform="translate(128,512)"><g transform="translate(0 -1)"><use href="#body_north"/></g></g><g transform="translate(192,512)"><g transform="translate(0 -2)"><use href="#body_north"/></g><circle cx="32" cy="30" r="12" fill="none" stroke="#9c7cff" stroke-width="2"/></g><g transform="translate(256,512)"><g transform="translate(0 -1)"><use href="#body_north"/></g><circle cx="32" cy="30" r="14" fill="none" stroke="#9c7cff" stroke-width="2"/></g><g transform="translate(320,512)"><g transform="translate(0 0)"><use href="#body_north"/></g><circle cx="32" cy="30" r="16" fill="none" stroke="#9c7cff" stroke-width="2"/></g><g transform="translate(0,576)"><g transform="translate(0 0)"><use href="#body_south"/></g></g><g transform="translate(64,576)"><g transform="translate(0 -1)"><use href="#body_south"/></g><circle cx="32" cy="29" r="8" fill="none" stroke="#9c7cff" stroke-width="2" opacity="0.33"/></g><g transform="translate(128,576)"><g transform="translate(0 -2)"><use href="#body_south"/></g><circle cx="32" cy="29" r="11" fill="none" stroke="#9c7cff" stroke-width="2" opacity="0.41"/></g><g transform="translate(192,576)"><g transform="translate(0 -3)"><use href="#body_south"/></g><circle cx="32" cy="29" r="14" fill="none" stroke="#9c7cff" stroke-width="2" opacity="0.49"/></g><g transform="translate(256,576)"><g transform="translate(0 -1)"><use href="#body_south"/></g><circle cx="32" cy="29" r="17" fill="none" stroke="#9c7cff" stroke-width="2" opacity="0.57"/></g><g transform="translate(320,576)"><g transform="translate(0 0)"><use href="#body_south"/></g><circle cx="32" cy="29" r="20" fill="none" stroke="#9c7cff" stroke-width="2" opacity="0.65"/></g><g transform="translate(0,640)"><g transform="translate(0 0)"><use href="#body_side"/></g></g><g transform="translate(64,640)"><g transform="translate(0 -1)"><use href="#body_side"/></g><circle cx="32" cy="29" r="8" fill="none" stroke="#9c7cff" stroke-width="2" opacity="0.33"/></g><g transform="translate(128,640)"><g transform="translate(0 -2)"><use href="#body_side"/></g><circle cx="32" cy="29" r="11" fill="none" stroke="#9c7cff" stroke-width="2" opacity="0.41"/></g><g transform="translate(192,640)"><g transform="translate(0 -3)"><use href="#body_side"/></g><circle cx="32" cy="29" r="14" fill="none" stroke="#9c7cff" stroke-width="2" opacity="0.49"/></g><g transform="translate(256,640)"><g transform="translate(0 -1)"><use href="#body_side"/></g><circle cx="32" cy="29" r="17" fill="none" stroke="#9c7cff" stroke-width="2" opacity="0.57"/></g><g transform="translate(320,640)"><g transform="translate(0 0)"><use href="#body_side"/></g><circle cx="32" cy="29" r="20" fill="none" stroke="#9c7cff" stroke-width="2" opacity="0.65"/></g><g transform="translate(0,704)"><g transform="translate(0 0)"><use href="#body_north"/></g></g><g transform="translate(64,704)"><g transform="translate(0 -1)"><use href="#body_north"/></g><circle cx="32" cy="29" r="8" fill="none" stroke="#9c7cff" stroke-width="2" opacity="0.33"/></g><g transform="translate(128,704)"><g transform="translate(0 -2)"><use href="#body_north"/></g><circle cx="32" cy="29" r="11" fill="none" stroke="#9c7cff" stroke-width="2" opacity="0.41"/></g><g transform="translate(192,704)"><g transform="translate(0 -3)"><use href="#body_north"/></g><circle cx="32" cy="29" r="14" fill="none" stroke="#9c7cff" stroke-width="2" opacity="0.49"/></g><g transform="translate(256,704)"><g transform="translate(0 -1)"><use href="#body_north"/></g><circle cx="32" cy="29" r="17" fill="none" stroke="#9c7cff" stroke-width="2" opacity="0.57"/></g><g transform="translate(320,704)"><g transform="translate(0 0)"><use href="#body_north"/></g><circle cx="32" cy="29" r="20" fill="none" stroke="#9c7cff" stroke-width="2" opacity="0.65"/></g><g transform="translate(0,768)"><g transform="translate(0 0)"><use href="#body_south"/></g></g><g transform="translate(64,768)"><g transform="translate(-2 -1)"><use href="#body_south"/></g><rect x="10" y="10" width="44" height="44" fill="#ff4d4d" opacity=".20"/></g><g transform="translate(128,768)"><g transform="translate(2 1)"><use href="#body_south"/></g><rect x="10" y="10" width="44" height="44" fill="#ff4d4d" opacity=".20"/></g><g transform="translate(192,768)"><g transform="translate(0 0)"><use href="#body_south"/></g></g><g transform="translate(256,768)"><g transform="translate(0 0)"><use href="#body_south"/></g></g><g transform="translate(320,768)"><g transform="translate(0 0)"><use href="#body_south"/></g></g><g transform="translate(0,832)"><g transform="translate(0 0)"><use href="#body_side"/></g></g><g transform="translate(64,832)"><g transform="translate(-2 -1)"><use href="#body_side"/></g><rect x="10" y="10" width="44" height="44" fill="#ff4d4d" opacity=".20"/></g><g transform="translate(128,832)"><g transform="translate(2 1)"><use href="#body_side"/></g><rect x="10" y="10" width="44" height="44" fill="#ff4d4d" opacity=".20"/></g><g transform="translate(192,832)"><g transform="translate(0 0)"><use href="#body_side"/></g></g><g transform="translate(256,832)"><g transform="translate(0 0)"><use href="#body_side"/></g></g><g transform="translate(320,832)"><g transform="translate(0 0)"><use href="#body_side"/></g></g><g transform="translate(0,896)"><g transform="translate(0 0)"><use href="#body_north"/></g></g><g transform="translate(64,896)"><g transform="translate(-2 -1)"><use href="#body_north"/></g><rect x="10" y="10" width="44" height="44" fill="#ff4d4d" opacity=".20"/></g><g transform="translate(128,896)"><g transform="translate(2 1)"><use href="#body_north"/></g><rect x="10" y="10" width="44" height="44" fill="#ff4d4d" opacity=".20"/></g><g transform="translate(192,896)"><g transform="translate(0 0)"><use href="#body_north"/></g></g><g transform="translate(256,896)"><g transform="translate(0 0)"><use href="#body_north"/></g></g><g transform="translate(320,896)"><g transform="translate(0 0)"><use href="#body_north"/></g></g><g transform="translate(0,960)"><g transform="translate(32 32) rotate(0) translate(-32 -32) translate(0 0)" opacity="1.00"><use href="#body_south"/></g></g><g transform="translate(64,960)"><g transform="translate(32 32) rotate(6) translate(-32 -32) translate(2 3)" opacity="0.88"><use href="#body_south"/></g></g><g transform="translate(128,960)"><g transform="translate(32 32) rotate(12) translate(-32 -32) translate(4 6)" opacity="0.76"><use href="#body_south"/></g></g><g transform="translate(192,960)"><g transform="translate(32 32) rotate(18) translate(-32 -32) translate(6 9)" opacity="0.64"><use href="#body_south"/></g></g><g transform="translate(256,960)"><g transform="translate(32 32) rotate(24) translate(-32 -32) translate(8 12)" opacity="0.52"><use href="#body_south"/></g></g><g transform="translate(320,960)"><g transform="translate(32 32) rotate(30) translate(-32 -32) translate(10 15)" opacity="0.40"><use href="#body_south"/></g></g><g transform="translate(0,1024)"><g transform="translate(32 32) rotate(0) translate(-32 -32) translate(0 0)" opacity="1.00"><use href="#body_side"/></g></g><g transform="translate(64,1024)"><g transform="translate(32 32) rotate(12) translate(-32 -32) translate(2 3)" opacity="0.88"><use href="#body_side"/></g></g><g transform="translate(128,1024)"><g transform="translate(32 32) rotate(24) translate(-32 -32) translate(4 6)" opacity="0.76"><use href="#body_side"/></g></g><g transform="translate(192,1024)"><g transform="translate(32 32) rotate(36) translate(-32 -32) translate(6 9)" opacity="0.64"><use href="#body_side"/></g></g><g transform="translate(256,1024)"><g transform="translate(32 32) rotate(48) translate(-32 -32) translate(8 12)" opacity="0.52"><use href="#body_side"/></g></g><g transform="translate(320,1024)"><g transform="translate(32 32) rotate(60) translate(-32 -32) translate(10 15)" opacity="0.40"><use href="#body_side"/></g></g><g transform="translate(0,1088)"><g transform="translate(32 32) rotate(0) translate(-32 -32) translate(0 0)" opacity="1.00"><use href="#body_north"/></g></g><g transform="translate(64,1088)"><g transform="translate(32 32) rotate(6) translate(-32 -32) translate(2 3)" opacity="0.88"><use href="#body_north"/></g></g><g transform="translate(128,1088)"><g transform="translate(32 32) rotate(12) translate(-32 -32) translate(4 6)" opacity="0.76"><use href="#body_north"/></g></g><g transform="translate(192,1088)"><g transform="translate(32 32) rotate(18) translate(-32 -32) translate(6 9)" opacity="0.64"><use href="#body_north"/></g></g><g transform="translate(256,1088)"><g transform="translate(32 32) rotate(24) translate(-32 -32) translate(8 12)" opacity="0.52"><use href="#body_north"/></g></g><g transform="translate(320,1088)"><g transform="translate(32 32) rotate(30) translate(-32 -32) translate(10 15)" opacity="0.40"><use href="#body_north"/></g></g></svg>